<svg width="9" height="16" viewBox="0 0 9 16" fill="none" xmlns="http://www.w3.org/2000/svg">
<path d="M3.24 10.4C3.24 9.32 3.3368 8.54347 3.5304 8.0704C3.724 7.59733 4.13387 7.08053 4.76 6.52C5.30667 6.04 5.72347 5.62347 6.0104 5.2704C6.29733 4.91733 6.44053 4.51387 6.44 4.06C6.44 3.51333 6.2568 3.06 5.8904 2.7C5.524 2.34 5.01387 2.16 4.36 2.16C3.68 2.16 3.16347 2.36667 2.8104 2.78C2.45733 3.19333 2.2072 3.61333 2.06 4.04L0 3.16C0.28 2.30667 0.793333 1.56667 1.54 0.94C2.28667 0.313333 3.22667 0 4.36 0C5.76 0 6.8368 0.390133 7.5904 1.1704C8.344 1.95067 8.72053 2.8872 8.72 3.98C8.72 4.64667 8.5768 5.2168 8.2904 5.6904C8.004 6.164 7.55387 6.70053 6.94 7.3C6.28667 7.92667 5.89013 8.40347 5.7504 8.7304C5.61067 9.05733 5.54053 9.61387 5.54 10.4H3.24ZM4.36 15.2C3.92 15.2 3.54347 15.0435 3.2304 14.7304C2.91733 14.4173 2.76053 14.0405 2.76 13.6C2.75947 13.1595 2.91627 12.7829 3.2304 12.4704C3.54453 12.1579 3.92107 12.0011 4.36 12C4.79893 11.9989 5.17573 12.1557 5.4904 12.4704C5.80507 12.7851 5.9616 13.1616 5.96 13.6C5.9584 14.0384 5.80187 14.4152 5.4904 14.7304C5.17893 15.0456 4.80213 15.2021 4.36 15.2Z" fill="#777777"/>
</svg>
